<mxfile host="app.diagrams.net" modified="2023-10-11T15:06:18.306Z" agent="Mozilla/5.0 (Windows NT 10.0; Win64; x64) AppleWebKit/537.36 (KHTML, like Gecko) Chrome/115.0.0.0 Safari/537.36 Edg/115.0.1901.188" etag="sYiCcqoe3aNcIKkNVTyH" version="22.0.4" type="device">
  <diagram name="Page-1" id="sf2VvQ9ZQHHVnhNO1c6G">
    <mxGraphModel dx="880" dy="451" grid="1" gridSize="10" guides="1" tooltips="1" connect="1" arrows="1" fold="1" page="1" pageScale="1" pageWidth="850" pageHeight="1100" math="0" shadow="0">
      <root>
        <mxCell id="0" />
        <mxCell id="1" parent="0" />
        <mxCell id="wdWQjx0Zik-McCIRQADP-1" value="ADV Mobile Management&lt;br&gt;System&lt;br&gt;" style="ellipse;whiteSpace=wrap;html=1;aspect=fixed;" vertex="1" parent="1">
          <mxGeometry x="400" y="270" width="120" height="120" as="geometry" />
        </mxCell>
        <mxCell id="wdWQjx0Zik-McCIRQADP-2" value="Admin Management" style="rounded=0;whiteSpace=wrap;html=1;" vertex="1" parent="1">
          <mxGeometry x="160" y="100" width="120" height="60" as="geometry" />
        </mxCell>
        <mxCell id="wdWQjx0Zik-McCIRQADP-3" value="Roles Management" style="rounded=0;whiteSpace=wrap;html=1;" vertex="1" parent="1">
          <mxGeometry x="160" y="230" width="120" height="60" as="geometry" />
        </mxCell>
        <mxCell id="wdWQjx0Zik-McCIRQADP-4" value="Mobile Model" style="rounded=0;whiteSpace=wrap;html=1;" vertex="1" parent="1">
          <mxGeometry x="160" y="360" width="120" height="60" as="geometry" />
        </mxCell>
        <mxCell id="wdWQjx0Zik-McCIRQADP-5" value="Login Management" style="rounded=0;whiteSpace=wrap;html=1;" vertex="1" parent="1">
          <mxGeometry x="160" y="510" width="120" height="60" as="geometry" />
        </mxCell>
        <mxCell id="wdWQjx0Zik-McCIRQADP-6" value="User Management" style="rounded=0;whiteSpace=wrap;html=1;" vertex="1" parent="1">
          <mxGeometry x="170" y="640" width="120" height="60" as="geometry" />
        </mxCell>
        <mxCell id="wdWQjx0Zik-McCIRQADP-7" value="Generate Mobile Model" style="rounded=0;whiteSpace=wrap;html=1;" vertex="1" parent="1">
          <mxGeometry x="630" y="100" width="120" height="60" as="geometry" />
        </mxCell>
        <mxCell id="wdWQjx0Zik-McCIRQADP-8" value="User Requirement" style="rounded=0;whiteSpace=wrap;html=1;" vertex="1" parent="1">
          <mxGeometry x="680" y="230" width="120" height="60" as="geometry" />
        </mxCell>
        <mxCell id="wdWQjx0Zik-McCIRQADP-9" value="Generate Payment Method" style="rounded=0;whiteSpace=wrap;html=1;" vertex="1" parent="1">
          <mxGeometry x="660" y="360" width="120" height="60" as="geometry" />
        </mxCell>
        <mxCell id="wdWQjx0Zik-McCIRQADP-10" value="Check Login Detail" style="rounded=0;whiteSpace=wrap;html=1;" vertex="1" parent="1">
          <mxGeometry x="660" y="500" width="120" height="60" as="geometry" />
        </mxCell>
        <mxCell id="wdWQjx0Zik-McCIRQADP-11" value="User information" style="rounded=0;whiteSpace=wrap;html=1;" vertex="1" parent="1">
          <mxGeometry x="660" y="640" width="120" height="60" as="geometry" />
        </mxCell>
        <mxCell id="wdWQjx0Zik-McCIRQADP-12" value="" style="endArrow=classic;html=1;rounded=0;" edge="1" parent="1" source="wdWQjx0Zik-McCIRQADP-1" target="wdWQjx0Zik-McCIRQADP-8">
          <mxGeometry width="50" height="50" relative="1" as="geometry">
            <mxPoint x="400" y="460" as="sourcePoint" />
            <mxPoint x="450" y="410" as="targetPoint" />
          </mxGeometry>
        </mxCell>
        <mxCell id="wdWQjx0Zik-McCIRQADP-13" value="" style="endArrow=classic;html=1;rounded=0;entryX=0;entryY=0.5;entryDx=0;entryDy=0;" edge="1" parent="1" source="wdWQjx0Zik-McCIRQADP-1" target="wdWQjx0Zik-McCIRQADP-9">
          <mxGeometry width="50" height="50" relative="1" as="geometry">
            <mxPoint x="400" y="460" as="sourcePoint" />
            <mxPoint x="450" y="410" as="targetPoint" />
          </mxGeometry>
        </mxCell>
        <mxCell id="wdWQjx0Zik-McCIRQADP-14" value="" style="endArrow=classic;html=1;rounded=0;exitX=0.958;exitY=0.722;exitDx=0;exitDy=0;exitPerimeter=0;" edge="1" parent="1" source="wdWQjx0Zik-McCIRQADP-1" target="wdWQjx0Zik-McCIRQADP-10">
          <mxGeometry width="50" height="50" relative="1" as="geometry">
            <mxPoint x="400" y="460" as="sourcePoint" />
            <mxPoint x="450" y="410" as="targetPoint" />
          </mxGeometry>
        </mxCell>
        <mxCell id="wdWQjx0Zik-McCIRQADP-15" value="" style="endArrow=classic;html=1;rounded=0;exitX=1;exitY=1;exitDx=0;exitDy=0;" edge="1" parent="1" source="wdWQjx0Zik-McCIRQADP-1" target="wdWQjx0Zik-McCIRQADP-11">
          <mxGeometry width="50" height="50" relative="1" as="geometry">
            <mxPoint x="510" y="530" as="sourcePoint" />
            <mxPoint x="450" y="410" as="targetPoint" />
          </mxGeometry>
        </mxCell>
        <mxCell id="wdWQjx0Zik-McCIRQADP-16" value="" style="endArrow=classic;html=1;rounded=0;" edge="1" parent="1" source="wdWQjx0Zik-McCIRQADP-1" target="wdWQjx0Zik-McCIRQADP-7">
          <mxGeometry width="50" height="50" relative="1" as="geometry">
            <mxPoint x="400" y="340" as="sourcePoint" />
            <mxPoint x="450" y="290" as="targetPoint" />
          </mxGeometry>
        </mxCell>
        <mxCell id="wdWQjx0Zik-McCIRQADP-17" value="" style="endArrow=classic;html=1;rounded=0;" edge="1" parent="1" source="wdWQjx0Zik-McCIRQADP-1" target="wdWQjx0Zik-McCIRQADP-2">
          <mxGeometry width="50" height="50" relative="1" as="geometry">
            <mxPoint x="400" y="340" as="sourcePoint" />
            <mxPoint x="450" y="290" as="targetPoint" />
          </mxGeometry>
        </mxCell>
        <mxCell id="wdWQjx0Zik-McCIRQADP-18" value="" style="endArrow=classic;html=1;rounded=0;entryX=1;entryY=0.5;entryDx=0;entryDy=0;exitX=0.033;exitY=0.257;exitDx=0;exitDy=0;exitPerimeter=0;" edge="1" parent="1" source="wdWQjx0Zik-McCIRQADP-1" target="wdWQjx0Zik-McCIRQADP-3">
          <mxGeometry width="50" height="50" relative="1" as="geometry">
            <mxPoint x="400" y="340" as="sourcePoint" />
            <mxPoint x="450" y="290" as="targetPoint" />
          </mxGeometry>
        </mxCell>
        <mxCell id="wdWQjx0Zik-McCIRQADP-19" value="" style="endArrow=classic;html=1;rounded=0;" edge="1" parent="1" target="wdWQjx0Zik-McCIRQADP-4">
          <mxGeometry width="50" height="50" relative="1" as="geometry">
            <mxPoint x="400" y="340" as="sourcePoint" />
            <mxPoint x="450" y="290" as="targetPoint" />
          </mxGeometry>
        </mxCell>
        <mxCell id="wdWQjx0Zik-McCIRQADP-20" value="" style="endArrow=classic;html=1;rounded=0;" edge="1" parent="1" source="wdWQjx0Zik-McCIRQADP-1" target="wdWQjx0Zik-McCIRQADP-5">
          <mxGeometry width="50" height="50" relative="1" as="geometry">
            <mxPoint x="400" y="340" as="sourcePoint" />
            <mxPoint x="450" y="290" as="targetPoint" />
          </mxGeometry>
        </mxCell>
        <mxCell id="wdWQjx0Zik-McCIRQADP-21" value="" style="endArrow=classic;html=1;rounded=0;" edge="1" parent="1" source="wdWQjx0Zik-McCIRQADP-1">
          <mxGeometry width="50" height="50" relative="1" as="geometry">
            <mxPoint x="400" y="428" as="sourcePoint" />
            <mxPoint x="251.25" y="638" as="targetPoint" />
          </mxGeometry>
        </mxCell>
      </root>
    </mxGraphModel>
  </diagram>
</mxfile>
